# xmcd CD database file
#
# Track frame offsets:
#	150
#	26018
#	51321
#	78426
#	106693
#	134850
#	159905
#	185699
#	208830
#	237453
#
# Disc length: 3534 seconds
#
# Revision: 0
# Processed by: cddbd v1.5.2PL0 Copyright (c) Steve Scherf et al.
# Submitted via: CDex 1.78
#
DISCID=8c0dcc0a
DTITLE=Rahul Sharma - Sweet Romance
DYEAR=1999
DGENRE=India overig
TTITLE0=One hundred strings deep
TTITLE1=By the river
TTITLE2=Who was she
TTITLE3=Here comes the rain
TTITLE4=Conversations in love
TTITLE5=Mela
TTITLE6=Remembering her
TTITLE7=Sweet romance
TTITLE8=Magical Himalayas
TTITLE9=Journey through the Alps
EXTD=YEAR: 1999
EXTT0=
EXTT1=
EXTT2=
EXTT3=
EXTT4=
EXTT5=
EXTT6=
EXTT7=
EXTT8=
EXTT9=
PLAYORDER=
